<svg width="836" height="52" viewBox="0 0 836 52" fill="none" xmlns="http://www.w3.org/2000/svg">
<path d="M66.845 16.353V20.43C66.845 20.634 66.785 20.796 66.665 20.916C66.545 21.036 66.392 21.096 66.206 21.096H64.82V18H57.098V8.766H59.321V16.353H62.921V8.766H65.144V16.353H66.845ZM74.0333 12.321C74.0333 12.033 73.9913 11.763 73.9073 11.511C73.8293 11.253 73.7093 11.028 73.5473 10.836C73.3853 10.644 73.1783 10.494 72.9263 10.386C72.6803 10.272 72.3923 10.215 72.0623 10.215C71.4203 10.215 70.9133 10.398 70.5413 10.764C70.1753 11.13 69.9413 11.649 69.8393 12.321H74.0333ZM69.7943 13.662C69.8303 14.136 69.9143 14.547 70.0463 14.895C70.1783 15.237 70.3523 15.522 70.5683 15.75C70.7843 15.972 71.0393 16.14 71.3333 16.254C71.6333 16.362 71.9633 16.416 72.3233 16.416C72.6833 16.416 72.9923 16.374 73.2503 16.29C73.5143 16.206 73.7423 16.113 73.9343 16.011C74.1323 15.909 74.3033 15.816 74.4473 15.732C74.5973 15.648 74.7413 15.606 74.8793 15.606C75.0653 15.606 75.2033 15.675 75.2933 15.813L75.9323 16.623C75.6863 16.911 75.4103 17.154 75.1043 17.352C74.7983 17.544 74.4773 17.7 74.1413 17.82C73.8113 17.934 73.4723 18.015 73.1243 18.063C72.7823 18.111 72.4493 18.135 72.1253 18.135C71.4833 18.135 70.8863 18.03 70.3343 17.82C69.7823 17.604 69.3023 17.289 68.8943 16.875C68.4863 16.455 68.1653 15.939 67.9313 15.327C67.6973 14.709 67.5803 13.995 67.5803 13.185C67.5803 12.555 67.6823 11.964 67.8863 11.412C68.0903 10.854 68.3813 10.371 68.7593 9.963C69.1433 9.549 69.6083 9.222 70.1543 8.982C70.7063 8.742 71.3273 8.622 72.0173 8.622C72.5993 8.622 73.1363 8.715 73.6283 8.901C74.1203 9.087 74.5433 9.36 74.8973 9.72C75.2513 10.074 75.5273 10.512 75.7253 11.034C75.9293 11.55 76.0313 12.141 76.0313 12.807C76.0313 13.143 75.9953 13.371 75.9233 13.491C75.8513 13.605 75.7133 13.662 75.5093 13.662H69.7943ZM85.7456 8.766V18H83.5226V13.914H79.9226V18H77.6996V8.766H79.9226V12.267H83.5226V8.766H85.7456ZM92.8256 14.058C92.1836 14.088 91.6436 14.145 91.2056 14.229C90.7676 14.307 90.4166 14.409 90.1526 14.535C89.8886 14.661 89.6996 14.808 89.5856 14.976C89.4716 15.144 89.4146 15.327 89.4146 15.525C89.4146 15.915 89.5286 16.194 89.7566 16.362C89.9906 16.53 90.2936 16.614 90.6656 16.614C91.1216 16.614 91.5146 16.533 91.8446 16.371C92.1806 16.203 92.5076 15.951 92.8256 15.615V14.058ZM87.7316 10.053C88.7936 9.081 90.0716 8.595 91.5656 8.595C92.1056 8.595 92.5886 8.685 93.0146 8.865C93.4406 9.039 93.8006 9.285 94.0946 9.603C94.3886 9.915 94.6106 10.29 94.7606 10.728C94.9166 11.166 94.9946 11.646 94.9946 12.168V18H93.9866C93.7766 18 93.6146 17.97 93.5006 17.91C93.3866 17.844 93.2966 17.715 93.2306 17.523L93.0326 16.857C92.7986 17.067 92.5706 17.253 92.3486 17.415C92.1266 17.571 91.8956 17.703 91.6556 17.811C91.4156 17.919 91.1576 18 90.8816 18.054C90.6116 18.114 90.3116 18.144 89.9816 18.144C89.5916 18.144 89.2316 18.093 88.9016 17.991C88.5716 17.883 88.2866 17.724 88.0466 17.514C87.8066 17.304 87.6206 17.043 87.4886 16.731C87.3566 16.419 87.2906 16.056 87.2906 15.642C87.2906 15.408 87.3296 15.177 87.4076 14.949C87.4856 14.715 87.6116 14.493 87.7856 14.283C87.9656 14.073 88.1966 13.875 88.4786 13.689C88.7606 13.503 89.1056 13.341 89.5136 13.203C89.9276 13.065 90.4076 12.954 90.9536 12.87C91.4996 12.78 92.1236 12.726 92.8256 12.708V12.168C92.8256 11.55 92.6936 11.094 92.4296 10.8C92.1656 10.5 91.7846 10.35 91.2866 10.35C90.9266 10.35 90.6266 10.392 90.3866 10.476C90.1526 10.56 89.9456 10.656 89.7656 10.764C89.5856 10.866 89.4206 10.959 89.2706 11.043C89.1266 11.127 88.9646 11.169 88.7846 11.169C88.6286 11.169 88.4966 11.13 88.3886 11.052C88.2806 10.968 88.1936 10.872 88.1276 10.764L87.7316 10.053Z" fill="#565656"/>
<path d="M66.12 33.02V35.72H60.6V38.06C61.0133 37.94 61.4867 37.88 62.02 37.88C63.3667 37.88 64.5267 38.2867 65.5 39.1C66.4733 39.9133 66.96 41.0133 66.96 42.4C66.96 43.7733 66.4533 44.9133 65.44 45.82C64.44 46.7133 63.2 47.16 61.72 47.16C59.8267 47.16 58.2467 46.46 56.98 45.06L58.62 42.78C58.74 42.9 58.9 43.0467 59.1 43.22C59.3 43.3933 59.6667 43.6267 60.2 43.92C60.7333 44.2 61.2667 44.34 61.8 44.34C62.3333 44.34 62.8067 44.18 63.22 43.86C63.6333 43.54 63.84 43.0667 63.84 42.44C63.84 41.8133 63.6133 41.3333 63.16 41C62.72 40.6533 62.1467 40.48 61.44 40.48C60.7333 40.48 59.9133 40.7333 58.98 41.24L57.68 39.84V33.02H66.12ZM72.7541 36.56C72.3141 37.4133 72.0941 38.54 72.0941 39.94C72.0941 41.34 72.3141 42.4667 72.7541 43.32C73.1941 44.1733 73.8807 44.6 74.8141 44.6C75.7474 44.6 76.4341 44.1733 76.8741 43.32C77.3141 42.4667 77.5341 41.34 77.5341 39.94C77.5341 38.54 77.3141 37.4133 76.8741 36.56C76.4341 35.7067 75.7474 35.28 74.8141 35.28C73.8807 35.28 73.1941 35.7067 72.7541 36.56ZM74.8141 47.16C72.8807 47.16 71.4341 46.5067 70.4741 45.2C69.5141 43.88 69.0341 42.1267 69.0341 39.94C69.0341 37.74 69.5141 35.9867 70.4741 34.68C71.4341 33.36 72.8807 32.7 74.8141 32.7C76.7474 32.7 78.1941 33.36 79.1541 34.68C80.1141 35.9867 80.5941 37.74 80.5941 39.94C80.5941 42.1267 80.1141 43.88 79.1541 45.2C78.1941 46.5067 76.7474 47.16 74.8141 47.16ZM86.5627 36.56C86.1227 37.4133 85.9027 38.54 85.9027 39.94C85.9027 41.34 86.1227 42.4667 86.5627 43.32C87.0027 44.1733 87.6893 44.6 88.6227 44.6C89.556 44.6 90.2427 44.1733 90.6827 43.32C91.1227 42.4667 91.3427 41.34 91.3427 39.94C91.3427 38.54 91.1227 37.4133 90.6827 36.56C90.2427 35.7067 89.556 35.28 88.6227 35.28C87.6893 35.28 87.0027 35.7067 86.5627 36.56ZM88.6227 47.16C86.6893 47.16 85.2427 46.5067 84.2827 45.2C83.3227 43.88 82.8427 42.1267 82.8427 39.94C82.8427 37.74 83.3227 35.9867 84.2827 34.68C85.2427 33.36 86.6893 32.7 88.6227 32.7C90.556 32.7 92.0027 33.36 92.9627 34.68C93.9227 35.9867 94.4027 37.74 94.4027 39.94C94.4027 42.1267 93.9227 43.88 92.9627 45.2C92.0027 46.5067 90.556 47.16 88.6227 47.16ZM112.143 47H109.164V38.3184H106.42C106.212 40.7598 105.958 42.5827 105.658 43.7871C105.359 44.985 104.958 45.8542 104.457 46.3945C103.962 46.9284 103.311 47.1953 102.504 47.1953C101.814 47.1953 101.247 47.0911 100.805 46.8828V44.5C101.124 44.6302 101.443 44.6953 101.762 44.6953C102.133 44.6953 102.442 44.4284 102.689 43.8945C102.943 43.3607 103.168 42.472 103.363 41.2285C103.565 39.9785 103.738 38.263 103.881 36.082H112.143V47ZM125.355 38.9434C125.355 39.5293 125.17 40.0306 124.799 40.4473C124.434 40.8574 123.894 41.1211 123.178 41.2383V41.3164C123.952 41.4076 124.564 41.6745 125.014 42.1172C125.469 42.5534 125.697 43.0938 125.697 43.7383C125.697 44.7995 125.281 45.61 124.447 46.1699C123.614 46.7233 122.423 47 120.873 47H115.277V36.082H120.873C122.37 36.082 123.49 36.3262 124.232 36.8145C124.981 37.2962 125.355 38.0059 125.355 38.9434ZM122.611 43.582C122.611 43.1523 122.445 42.8431 122.113 42.6543C121.781 42.459 121.283 42.3613 120.619 42.3613H118.256V44.9395H120.678C121.309 44.9395 121.788 44.8223 122.113 44.5879C122.445 44.347 122.611 44.0117 122.611 43.582ZM122.338 39.1777C122.338 38.5137 121.811 38.1816 120.756 38.1816H118.256V40.3398H120.414C121.046 40.3398 121.524 40.2487 121.85 40.0664C122.175 39.8841 122.338 39.5879 122.338 39.1777ZM128.128 46.66C127.794 46.3133 127.628 45.8933 127.628 45.4C127.628 44.9067 127.794 44.4933 128.128 44.16C128.474 43.8133 128.894 43.64 129.388 43.64C129.881 43.64 130.294 43.8133 130.628 44.16C130.974 44.4933 131.148 44.9067 131.148 45.4C131.148 45.8933 130.974 46.3133 130.628 46.66C130.294 46.9933 129.881 47.16 129.388 47.16C128.894 47.16 128.474 46.9933 128.128 46.66Z" fill="#FF9100"/>
<path d="M4.55625 34.4375H27.4438L32 29.8625V22.1375L27.425 17.5625H4.55625L0 22.1187V29.8813L4.55625 34.4375Z" fill="url(#paint0_linear)"/>
<path d="M0.9375 17.5625C0.412438 17.5625 0 17.9749 0 18.5V22.1187C2.79375 22.8125 5.25 20.3563 4.55625 17.5625H0.9375ZM0 29.8813V33.5C0 34.0249 0.412438 34.4375 0.9375 34.4375H4.55625C5.25 31.6438 2.79375 29.1875 0 29.8813ZM27.4438 34.4375H31.0625C31.5876 34.4375 32 34.0249 32 33.5V29.8625C29.2063 29.1875 26.75 31.6438 27.4438 34.4375ZM31.0625 17.5625H27.425C26.75 20.3563 29.2063 22.8125 32 22.1375V18.5C32 17.9749 31.5876 17.5625 31.0625 17.5625ZM6.5625 25.0625C6.04475 25.0625 5.625 25.4823 5.625 26C5.625 26.5178 6.04475 26.9375 6.5625 26.9375C7.08025 26.9375 7.5 26.5178 7.5 26C7.5 25.4823 7.08025 25.0625 6.5625 25.0625ZM25.4375 25.0625C24.9198 25.0625 24.5 25.4823 24.5 26C24.5 26.5178 24.9198 26.9375 25.4375 26.9375C25.9553 26.9375 26.375 26.5178 26.375 26C26.375 25.4823 25.9553 25.0625 25.4375 25.0625ZM16 17.5625C12.3818 17.5625 9.4375 21.3473 9.4375 26C9.4375 30.6527 12.3818 34.4375 16 34.4375C19.6182 34.4375 22.5625 30.6527 22.5625 26C22.5625 21.3473 19.6182 17.5625 16 17.5625Z" fill="url(#paint1_linear)"/>
<rect x="165" y="14" width="2" height="24" fill="#F1F1F1"/>
<rect x="396" y="14" width="2" height="24" fill="#F1F1F1"/>
<rect x="645" y="14" width="2" height="24" fill="#F1F1F1"/>
<path d="M264.144 18H261.921V10.413H258.321V18H256.098V8.766H264.144V18ZM270.432 8.622C271.116 8.622 271.737 8.733 272.295 8.955C272.859 9.177 273.339 9.492 273.735 9.9C274.137 10.308 274.446 10.806 274.662 11.394C274.878 11.982 274.986 12.639 274.986 13.365C274.986 14.097 274.878 14.757 274.662 15.345C274.446 15.933 274.137 16.434 273.735 16.848C273.339 17.262 272.859 17.58 272.295 17.802C271.737 18.024 271.116 18.135 270.432 18.135C269.742 18.135 269.115 18.024 268.551 17.802C267.987 17.58 267.504 17.262 267.102 16.848C266.706 16.434 266.397 15.933 266.175 15.345C265.959 14.757 265.851 14.097 265.851 13.365C265.851 12.639 265.959 11.982 266.175 11.394C266.397 10.806 266.706 10.308 267.102 9.9C267.504 9.492 267.987 9.177 268.551 8.955C269.115 8.733 269.742 8.622 270.432 8.622ZM270.432 16.425C271.2 16.425 271.767 16.167 272.133 15.651C272.505 15.135 272.691 14.379 272.691 13.383C272.691 12.387 272.505 11.628 272.133 11.106C271.767 10.584 271.2 10.323 270.432 10.323C269.652 10.323 269.073 10.587 268.695 11.115C268.323 11.637 268.137 12.393 268.137 13.383C268.137 14.373 268.323 15.129 268.695 15.651C269.073 16.167 269.652 16.425 270.432 16.425ZM282.574 16.416V10.467H280.306C280.246 11.241 280.171 11.94 280.081 12.564C279.991 13.182 279.886 13.734 279.766 14.22C279.646 14.706 279.514 15.129 279.37 15.489C279.232 15.849 279.082 16.158 278.92 16.416H282.574ZM286.426 16.353V20.43C286.426 20.634 286.366 20.796 286.246 20.916C286.132 21.036 285.982 21.096 285.796 21.096H284.41V18H277.498V20.466C277.498 20.622 277.447 20.766 277.345 20.898C277.249 21.03 277.096 21.096 276.886 21.096H275.482V16.416H275.743C275.953 16.416 276.157 16.389 276.355 16.335C276.553 16.275 276.742 16.155 276.922 15.975C277.108 15.795 277.282 15.537 277.444 15.201C277.612 14.859 277.762 14.406 277.894 13.842C278.026 13.272 278.14 12.573 278.236 11.745C278.338 10.917 278.419 9.924 278.479 8.766H284.734V16.353H286.426ZM296.071 18H293.929C293.767 18 293.635 17.958 293.533 17.874C293.437 17.79 293.356 17.694 293.29 17.586L291.337 14.373C291.307 14.475 291.271 14.571 291.229 14.661C291.193 14.751 291.151 14.835 291.103 14.913L289.375 17.586C289.309 17.688 289.228 17.784 289.132 17.874C289.036 17.958 288.916 18 288.772 18H286.783L289.951 13.239L286.909 8.766H289.051C289.213 8.766 289.333 8.79 289.411 8.838C289.489 8.88 289.558 8.952 289.618 9.054L291.553 12.132C291.619 11.928 291.712 11.727 291.832 11.529L293.389 9.099C293.521 8.877 293.692 8.766 293.902 8.766H295.945L292.912 13.14L296.071 18ZM300.895 8.622C301.579 8.622 302.2 8.733 302.758 8.955C303.322 9.177 303.802 9.492 304.198 9.9C304.6 10.308 304.909 10.806 305.125 11.394C305.341 11.982 305.449 12.639 305.449 13.365C305.449 14.097 305.341 14.757 305.125 15.345C304.909 15.933 304.6 16.434 304.198 16.848C303.802 17.262 303.322 17.58 302.758 17.802C302.2 18.024 301.579 18.135 300.895 18.135C300.205 18.135 299.578 18.024 299.014 17.802C298.45 17.58 297.967 17.262 297.565 16.848C297.169 16.434 296.86 15.933 296.638 15.345C296.422 14.757 296.314 14.097 296.314 13.365C296.314 12.639 296.422 11.982 296.638 11.394C296.86 10.806 297.169 10.308 297.565 9.9C297.967 9.492 298.45 9.177 299.014 8.955C299.578 8.733 300.205 8.622 300.895 8.622ZM300.895 16.425C301.663 16.425 302.23 16.167 302.596 15.651C302.968 15.135 303.154 14.379 303.154 13.383C303.154 12.387 302.968 11.628 302.596 11.106C302.23 10.584 301.663 10.323 300.895 10.323C300.115 10.323 299.536 10.587 299.158 11.115C298.786 11.637 298.6 12.393 298.6 13.383C298.6 14.373 298.786 15.129 299.158 15.651C299.536 16.167 300.115 16.425 300.895 16.425ZM313.037 16.416V10.467H310.769C310.709 11.241 310.634 11.94 310.544 12.564C310.454 13.182 310.349 13.734 310.229 14.22C310.109 14.706 309.977 15.129 309.833 15.489C309.695 15.849 309.545 16.158 309.383 16.416H313.037ZM316.889 16.353V20.43C316.889 20.634 316.829 20.796 316.709 20.916C316.595 21.036 316.445 21.096 316.259 21.096H314.873V18H307.961V20.466C307.961 20.622 307.91 20.766 307.808 20.898C307.712 21.03 307.559 21.096 307.349 21.096H305.945V16.416H306.206C306.416 16.416 306.62 16.389 306.818 16.335C307.016 16.275 307.205 16.155 307.385 15.975C307.571 15.795 307.745 15.537 307.907 15.201C308.075 14.859 308.225 14.406 308.357 13.842C308.489 13.272 308.603 12.573 308.699 11.745C308.801 10.917 308.882 9.924 308.942 8.766H315.197V16.353H316.889ZM323.104 12.924V10.215H321.898C321.616 10.215 321.382 10.257 321.196 10.341C321.01 10.419 320.857 10.524 320.737 10.656C320.623 10.782 320.542 10.926 320.494 11.088C320.446 11.25 320.422 11.409 320.422 11.565C320.422 11.991 320.563 12.324 320.845 12.564C321.133 12.804 321.517 12.924 321.997 12.924H323.104ZM325.219 8.766V18H323.104V14.292H322.717C322.537 14.292 322.387 14.31 322.267 14.346C322.153 14.376 322.054 14.421 321.97 14.481C321.892 14.535 321.823 14.604 321.763 14.688C321.709 14.772 321.652 14.865 321.592 14.967L320.116 17.235C320.044 17.361 319.966 17.472 319.882 17.568C319.804 17.664 319.711 17.745 319.603 17.811C319.501 17.871 319.378 17.919 319.234 17.955C319.096 17.985 318.928 18 318.73 18H317.191L319.522 14.742C319.648 14.514 319.795 14.331 319.963 14.193C320.131 14.055 320.329 13.944 320.557 13.86C320.125 13.782 319.756 13.662 319.45 13.5C319.15 13.332 318.907 13.14 318.721 12.924C318.535 12.702 318.4 12.465 318.316 12.213C318.232 11.961 318.19 11.712 318.19 11.466C318.19 11.124 318.256 10.791 318.388 10.467C318.526 10.143 318.742 9.855 319.036 9.603C319.33 9.351 319.708 9.15 320.17 9C320.632 8.844 321.187 8.766 321.835 8.766H325.219ZM341.893 16.353V20.43C341.893 20.634 341.833 20.796 341.713 20.916C341.599 21.036 341.449 21.096 341.263 21.096H339.877V18H327.43V8.766H329.653V16.353H332.704V8.766H334.927V16.353H337.978V8.766H340.201V16.353H341.893ZM347.14 9.765C347.488 9.429 347.92 9.156 348.436 8.946C348.952 8.73 349.57 8.622 350.29 8.622C350.86 8.622 351.367 8.691 351.811 8.829C352.255 8.961 352.627 9.144 352.927 9.378C353.233 9.606 353.464 9.87 353.62 10.17C353.782 10.464 353.863 10.773 353.863 11.097C353.863 11.271 353.836 11.454 353.782 11.646C353.734 11.832 353.65 12.015 353.53 12.195C353.416 12.375 353.263 12.543 353.071 12.699C352.879 12.849 352.642 12.978 352.36 13.086C352.864 13.278 353.269 13.56 353.575 13.932C353.887 14.304 354.043 14.763 354.043 15.309C354.043 15.759 353.938 16.158 353.728 16.506C353.524 16.854 353.251 17.151 352.909 17.397C352.567 17.637 352.174 17.82 351.73 17.946C351.292 18.072 350.839 18.135 350.371 18.135C350.107 18.135 349.822 18.111 349.516 18.063C349.216 18.015 348.913 17.934 348.607 17.82C348.301 17.7 348.001 17.544 347.707 17.352C347.413 17.154 347.146 16.911 346.906 16.623L347.545 15.813C347.635 15.675 347.77 15.606 347.95 15.606C348.088 15.606 348.22 15.651 348.346 15.741C348.472 15.825 348.616 15.921 348.778 16.029C348.946 16.131 349.144 16.227 349.372 16.317C349.6 16.401 349.885 16.443 350.227 16.443C350.785 16.443 351.208 16.317 351.496 16.065C351.784 15.813 351.928 15.498 351.928 15.12C351.928 14.748 351.778 14.457 351.478 14.247C351.184 14.037 350.704 13.932 350.038 13.932H348.994V12.483H350.038C350.62 12.483 351.067 12.381 351.379 12.177C351.691 11.973 351.847 11.703 351.847 11.367C351.847 11.061 351.709 10.809 351.433 10.611C351.163 10.413 350.761 10.314 350.227 10.314C349.909 10.314 349.639 10.347 349.417 10.413C349.195 10.479 349.003 10.551 348.841 10.629C348.685 10.701 348.553 10.77 348.445 10.836C348.337 10.902 348.235 10.935 348.139 10.935C348.037 10.935 347.95 10.917 347.878 10.881C347.806 10.839 347.728 10.752 347.644 10.62L347.14 9.765ZM360.662 14.058C360.02 14.088 359.48 14.145 359.042 14.229C358.604 14.307 358.253 14.409 357.989 14.535C357.725 14.661 357.536 14.808 357.422 14.976C357.308 15.144 357.251 15.327 357.251 15.525C357.251 15.915 357.365 16.194 357.593 16.362C357.827 16.53 358.13 16.614 358.502 16.614C358.958 16.614 359.351 16.533 359.681 16.371C360.017 16.203 360.344 15.951 360.662 15.615V14.058ZM355.568 10.053C356.63 9.081 357.908 8.595 359.402 8.595C359.942 8.595 360.425 8.685 360.851 8.865C361.277 9.039 361.637 9.285 361.931 9.603C362.225 9.915 362.447 10.29 362.597 10.728C362.753 11.166 362.831 11.646 362.831 12.168V18H361.823C361.613 18 361.451 17.97 361.337 17.91C361.223 17.844 361.133 17.715 361.067 17.523L360.869 16.857C360.635 17.067 360.407 17.253 360.185 17.415C359.963 17.571 359.732 17.703 359.492 17.811C359.252 17.919 358.994 18 358.718 18.054C358.448 18.114 358.148 18.144 357.818 18.144C357.428 18.144 357.068 18.093 356.738 17.991C356.408 17.883 356.123 17.724 355.883 17.514C355.643 17.304 355.457 17.043 355.325 16.731C355.193 16.419 355.127 16.056 355.127 15.642C355.127 15.408 355.166 15.177 355.244 14.949C355.322 14.715 355.448 14.493 355.622 14.283C355.802 14.073 356.033 13.875 356.315 13.689C356.597 13.503 356.942 13.341 357.35 13.203C357.764 13.065 358.244 12.954 358.79 12.87C359.336 12.78 359.96 12.726 360.662 12.708V12.168C360.662 11.55 360.53 11.094 360.266 10.8C360.002 10.5 359.621 10.35 359.123 10.35C358.763 10.35 358.463 10.392 358.223 10.476C357.989 10.56 357.782 10.656 357.602 10.764C357.422 10.866 357.257 10.959 357.107 11.043C356.963 11.127 356.801 11.169 356.621 11.169C356.465 11.169 356.333 11.13 356.225 11.052C356.117 10.968 356.03 10.872 355.964 10.764L355.568 10.053Z" fill="#565656"/>
<path d="M255.62 33.02H261.28V47H258.28V35.68H255.62V33.02ZM264.406 42.32V39.66H271.526V42.32H264.406ZM279.951 35.38C279.084 35.38 278.411 35.6733 277.931 36.26C277.464 36.8333 277.178 37.62 277.071 38.62C277.938 38.06 278.858 37.78 279.831 37.78C281.138 37.78 282.224 38.2067 283.091 39.06C283.971 39.9133 284.411 41.0533 284.411 42.48C284.411 43.8933 283.938 45.0267 282.991 45.88C282.058 46.7333 280.878 47.16 279.451 47.16C278.464 47.16 277.604 46.9733 276.871 46.6C276.151 46.2133 275.591 45.68 275.191 45C274.391 43.68 273.991 42.0267 273.991 40.04C273.991 38.76 274.144 37.64 274.451 36.68C274.771 35.7067 275.204 34.94 275.751 34.38C276.818 33.26 278.138 32.7 279.711 32.7C280.364 32.7 280.984 32.8 281.571 33C282.171 33.1867 282.631 33.38 282.951 33.58C283.271 33.78 283.624 34.0333 284.011 34.34L282.531 36.54C282.451 36.46 282.331 36.3533 282.171 36.22C282.024 36.0867 281.724 35.9133 281.271 35.7C280.818 35.4867 280.378 35.38 279.951 35.38ZM279.531 40.42C278.918 40.42 278.398 40.6067 277.971 40.98C277.558 41.34 277.351 41.8133 277.351 42.4C277.351 42.9867 277.551 43.4933 277.951 43.92C278.351 44.3333 278.851 44.54 279.451 44.54C280.051 44.54 280.551 44.3533 280.951 43.98C281.351 43.6067 281.551 43.1267 281.551 42.54C281.551 41.94 281.371 41.44 281.011 41.04C280.651 40.6267 280.158 40.42 279.531 40.42ZM299.463 36.082H302.744L298.418 41.3164L303.125 47H299.746L295.283 41.4629V47H292.305V36.082H295.283V41.3848L299.463 36.082ZM314.463 47H311.484V38.3184H308.74C308.532 40.7598 308.278 42.5827 307.979 43.7871C307.679 44.985 307.279 45.8542 306.777 46.3945C306.283 46.9284 305.632 47.1953 304.824 47.1953C304.134 47.1953 303.568 47.0911 303.125 46.8828V44.5C303.444 44.6302 303.763 44.6953 304.082 44.6953C304.453 44.6953 304.762 44.4284 305.01 43.8945C305.264 43.3607 305.488 42.472 305.684 41.2285C305.885 39.9785 306.058 38.263 306.201 36.082H314.463V47ZM324.531 47L323.955 45.5156H323.877C323.376 46.1471 322.858 46.5866 322.324 46.834C321.797 47.0749 321.107 47.1953 320.254 47.1953C319.206 47.1953 318.379 46.8958 317.773 46.2969C317.174 45.6979 316.875 44.8451 316.875 43.7383C316.875 42.5794 317.279 41.7266 318.086 41.1797C318.9 40.6263 320.124 40.3203 321.758 40.2617L323.652 40.2031V39.7246C323.652 38.6178 323.086 38.0645 321.953 38.0645C321.081 38.0645 320.055 38.3281 318.877 38.8555L317.891 36.8438C319.147 36.1862 320.54 35.8574 322.07 35.8574C323.535 35.8574 324.658 36.1764 325.439 36.8145C326.221 37.4525 326.611 38.4225 326.611 39.7246V47H324.531ZM323.652 41.9414L322.5 41.9805C321.634 42.0065 320.99 42.1628 320.566 42.4492C320.143 42.7357 319.932 43.1719 319.932 43.7578C319.932 44.5977 320.413 45.0176 321.377 45.0176C322.067 45.0176 322.617 44.819 323.027 44.4219C323.444 44.0247 323.652 43.4974 323.652 42.8398V41.9414ZM334.121 47.1953C330.723 47.1953 329.023 45.3301 329.023 41.5996C329.023 39.7441 329.486 38.3281 330.41 37.3516C331.335 36.3685 332.66 35.877 334.385 35.877C335.648 35.877 336.781 36.1243 337.783 36.6191L336.904 38.9238C336.436 38.735 335.999 38.582 335.596 38.4648C335.192 38.3411 334.788 38.2793 334.385 38.2793C332.835 38.2793 332.061 39.3796 332.061 41.5801C332.061 43.7155 332.835 44.7832 334.385 44.7832C334.958 44.7832 335.488 44.7083 335.977 44.5586C336.465 44.4023 336.953 44.1615 337.441 43.8359V46.3848C336.96 46.6908 336.471 46.9023 335.977 47.0195C335.488 47.1367 334.87 47.1953 334.121 47.1953Z" fill="#FF9100"/>
<path d="M207.5 17.5625C203.882 17.5625 200.938 20.5068 200.938 24.125C200.938 27.7432 203.882 30.6875 207.5 30.6875C211.118 30.6875 214.062 27.7432 214.062 24.125C214.062 20.5068 211.118 17.5625 207.5 17.5625ZM222.5 10C218.882 10 215.938 12.9443 215.938 16.5625C215.938 20.1807 218.882 23.125 222.5 23.125C226.118 23.125 229.062 20.1807 229.062 16.5625C229.062 12.9443 226.118 10 222.5 10Z" fill="url(#paint2_linear)"/>
<path d="M207.5 30.6875C202.847 30.6875 199 34.4723 199 39.125V41.0625C199 41.5807 199.482 42 200 42H215C215.518 42 215.938 41.5807 215.938 41.0625V39.125C215.938 34.4723 212.153 30.6875 207.5 30.6875ZM222.5 23.125C217.847 23.125 214.062 26.9098 214.062 31.5625V33.5C214.062 34.0182 214.482 34.4375 215 34.4375H230C230.518 34.4375 231 34.0182 231 33.5V31.5625C231 26.9098 227.153 23.125 222.5 23.125Z" fill="url(#paint3_linear)"/>
<path d="M495.144 8.766V18H492.921V13.914H489.321V18H487.098V8.766H489.321V12.267H492.921V8.766H495.144ZM502.224 14.058C501.582 14.088 501.042 14.145 500.604 14.229C500.166 14.307 499.815 14.409 499.551 14.535C499.287 14.661 499.098 14.808 498.984 14.976C498.87 15.144 498.813 15.327 498.813 15.525C498.813 15.915 498.927 16.194 499.155 16.362C499.389 16.53 499.692 16.614 500.064 16.614C500.52 16.614 500.913 16.533 501.243 16.371C501.579 16.203 501.906 15.951 502.224 15.615V14.058ZM497.13 10.053C498.192 9.081 499.47 8.595 500.964 8.595C501.504 8.595 501.987 8.685 502.413 8.865C502.839 9.039 503.199 9.285 503.493 9.603C503.787 9.915 504.009 10.29 504.159 10.728C504.315 11.166 504.393 11.646 504.393 12.168V18H503.385C503.175 18 503.013 17.97 502.899 17.91C502.785 17.844 502.695 17.715 502.629 17.523L502.431 16.857C502.197 17.067 501.969 17.253 501.747 17.415C501.525 17.571 501.294 17.703 501.054 17.811C500.814 17.919 500.556 18 500.28 18.054C500.01 18.114 499.71 18.144 499.38 18.144C498.99 18.144 498.63 18.093 498.3 17.991C497.97 17.883 497.685 17.724 497.445 17.514C497.205 17.304 497.019 17.043 496.887 16.731C496.755 16.419 496.689 16.056 496.689 15.642C496.689 15.408 496.728 15.177 496.806 14.949C496.884 14.715 497.01 14.493 497.184 14.283C497.364 14.073 497.595 13.875 497.877 13.689C498.159 13.503 498.504 13.341 498.912 13.203C499.326 13.065 499.806 12.954 500.352 12.87C500.898 12.78 501.522 12.726 502.224 12.708V12.168C502.224 11.55 502.092 11.094 501.828 10.8C501.564 10.5 501.183 10.35 500.685 10.35C500.325 10.35 500.025 10.392 499.785 10.476C499.551 10.56 499.344 10.656 499.164 10.764C498.984 10.866 498.819 10.959 498.669 11.043C498.525 11.127 498.363 11.169 498.183 11.169C498.027 11.169 497.895 11.13 497.787 11.052C497.679 10.968 497.592 10.872 497.526 10.764L497.13 10.053ZM513.777 8.766V18H511.554V14.373C510.762 14.565 510.027 14.676 509.349 14.706C508.671 14.73 508.083 14.649 507.585 14.463C507.093 14.271 506.706 13.962 506.424 13.536C506.148 13.11 506.01 12.543 506.01 11.835V8.766H508.233V11.493C508.233 11.871 508.293 12.177 508.413 12.411C508.539 12.639 508.734 12.804 508.998 12.906C509.268 13.008 509.613 13.05 510.033 13.032C510.453 13.014 510.96 12.945 511.554 12.825V8.766H513.777ZM520.857 14.058C520.215 14.088 519.675 14.145 519.237 14.229C518.799 14.307 518.448 14.409 518.184 14.535C517.92 14.661 517.731 14.808 517.617 14.976C517.503 15.144 517.446 15.327 517.446 15.525C517.446 15.915 517.56 16.194 517.788 16.362C518.022 16.53 518.325 16.614 518.697 16.614C519.153 16.614 519.546 16.533 519.876 16.371C520.212 16.203 520.539 15.951 520.857 15.615V14.058ZM515.763 10.053C516.825 9.081 518.103 8.595 519.597 8.595C520.137 8.595 520.62 8.685 521.046 8.865C521.472 9.039 521.832 9.285 522.126 9.603C522.42 9.915 522.642 10.29 522.792 10.728C522.948 11.166 523.026 11.646 523.026 12.168V18H522.018C521.808 18 521.646 17.97 521.532 17.91C521.418 17.844 521.328 17.715 521.262 17.523L521.064 16.857C520.83 17.067 520.602 17.253 520.38 17.415C520.158 17.571 519.927 17.703 519.687 17.811C519.447 17.919 519.189 18 518.913 18.054C518.643 18.114 518.343 18.144 518.013 18.144C517.623 18.144 517.263 18.093 516.933 17.991C516.603 17.883 516.318 17.724 516.078 17.514C515.838 17.304 515.652 17.043 515.52 16.731C515.388 16.419 515.322 16.056 515.322 15.642C515.322 15.408 515.361 15.177 515.439 14.949C515.517 14.715 515.643 14.493 515.817 14.283C515.997 14.073 516.228 13.875 516.51 13.689C516.792 13.503 517.137 13.341 517.545 13.203C517.959 13.065 518.439 12.954 518.985 12.87C519.531 12.78 520.155 12.726 520.857 12.708V12.168C520.857 11.55 520.725 11.094 520.461 10.8C520.197 10.5 519.816 10.35 519.318 10.35C518.958 10.35 518.658 10.392 518.418 10.476C518.184 10.56 517.977 10.656 517.797 10.764C517.617 10.866 517.452 10.959 517.302 11.043C517.158 11.127 516.996 11.169 516.816 11.169C516.66 11.169 516.528 11.13 516.42 11.052C516.312 10.968 516.225 10.872 516.159 10.764L515.763 10.053ZM533.687 18H531.464V10.467H529.196C529.124 11.601 529.013 12.579 528.863 13.401C528.713 14.217 528.533 14.91 528.323 15.48C528.119 16.05 527.888 16.509 527.63 16.857C527.378 17.199 527.108 17.466 526.82 17.658C526.532 17.85 526.235 17.976 525.929 18.036C525.623 18.102 525.314 18.135 525.002 18.135C524.672 18.135 524.429 18.105 524.273 18.045C524.123 17.991 524.048 17.913 524.048 17.811V16.425H524.579C524.777 16.425 524.975 16.395 525.173 16.335C525.371 16.275 525.563 16.152 525.749 15.966C525.935 15.78 526.112 15.516 526.28 15.174C526.448 14.826 526.601 14.37 526.739 13.806C526.883 13.236 527.009 12.54 527.117 11.718C527.225 10.896 527.309 9.912 527.369 8.766H533.687V18ZM539.963 8.622C540.647 8.622 541.268 8.733 541.826 8.955C542.39 9.177 542.87 9.492 543.266 9.9C543.668 10.308 543.977 10.806 544.193 11.394C544.409 11.982 544.517 12.639 544.517 13.365C544.517 14.097 544.409 14.757 544.193 15.345C543.977 15.933 543.668 16.434 543.266 16.848C542.87 17.262 542.39 17.58 541.826 17.802C541.268 18.024 540.647 18.135 539.963 18.135C539.273 18.135 538.646 18.024 538.082 17.802C537.518 17.58 537.035 17.262 536.633 16.848C536.237 16.434 535.928 15.933 535.706 15.345C535.49 14.757 535.382 14.097 535.382 13.365C535.382 12.639 535.49 11.982 535.706 11.394C535.928 10.806 536.237 10.308 536.633 9.9C537.035 9.492 537.518 9.177 538.082 8.955C538.646 8.733 539.273 8.622 539.963 8.622ZM539.963 16.425C540.731 16.425 541.298 16.167 541.664 15.651C542.036 15.135 542.222 14.379 542.222 13.383C542.222 12.387 542.036 11.628 541.664 11.106C541.298 10.584 540.731 10.323 539.963 10.323C539.183 10.323 538.604 10.587 538.226 11.115C537.854 11.637 537.668 12.393 537.668 13.383C537.668 14.373 537.854 15.129 538.226 15.651C538.604 16.167 539.183 16.425 539.963 16.425Z" fill="#565656"/>
<path d="M486.62 33.02H492.28V47H489.28V35.68H486.62V33.02ZM501.146 35.38C500.28 35.38 499.606 35.6733 499.126 36.26C498.66 36.8333 498.373 37.62 498.266 38.62C499.133 38.06 500.053 37.78 501.026 37.78C502.333 37.78 503.42 38.2067 504.286 39.06C505.166 39.9133 505.606 41.0533 505.606 42.48C505.606 43.8933 505.133 45.0267 504.186 45.88C503.253 46.7333 502.073 47.16 500.646 47.16C499.66 47.16 498.8 46.9733 498.066 46.6C497.346 46.2133 496.786 45.68 496.386 45C495.586 43.68 495.186 42.0267 495.186 40.04C495.186 38.76 495.34 37.64 495.646 36.68C495.966 35.7067 496.4 34.94 496.946 34.38C498.013 33.26 499.333 32.7 500.906 32.7C501.56 32.7 502.18 32.8 502.766 33C503.366 33.1867 503.826 33.38 504.146 33.58C504.466 33.78 504.82 34.0333 505.206 34.34L503.726 36.54C503.646 36.46 503.526 36.3533 503.366 36.22C503.22 36.0867 502.92 35.9133 502.466 35.7C502.013 35.4867 501.573 35.38 501.146 35.38ZM500.726 40.42C500.113 40.42 499.593 40.6067 499.166 40.98C498.753 41.34 498.546 41.8133 498.546 42.4C498.546 42.9867 498.746 43.4933 499.146 43.92C499.546 44.3333 500.046 44.54 500.646 44.54C501.246 44.54 501.746 44.3533 502.146 43.98C502.546 43.6067 502.746 43.1267 502.746 42.54C502.746 41.94 502.566 41.44 502.206 41.04C501.846 40.6267 501.353 40.42 500.726 40.42ZM527.26 47H524.477V38.3965L524.32 39.002C523.969 40.3757 523.653 41.4141 523.373 42.1172L521.439 47H519.32L517.357 42.0781C517.077 41.362 516.778 40.3561 516.459 39.0605L516.273 38.3965V47H513.5V36.082H517.602L519.477 40.7402C519.672 41.2415 519.851 41.8177 520.014 42.4688C520.183 43.1198 520.297 43.6764 520.355 44.1387C520.57 43.1621 520.736 42.4622 520.854 42.0391C520.977 41.6094 521.111 41.2155 521.254 40.8574C521.397 40.4993 522.045 38.9076 523.197 36.082H527.26V47ZM537.328 47L536.752 45.5156H536.674C536.173 46.1471 535.655 46.5866 535.121 46.834C534.594 47.0749 533.904 47.1953 533.051 47.1953C532.003 47.1953 531.176 46.8958 530.57 46.2969C529.971 45.6979 529.672 44.8451 529.672 43.7383C529.672 42.5794 530.076 41.7266 530.883 41.1797C531.697 40.6263 532.921 40.3203 534.555 40.2617L536.449 40.2031V39.7246C536.449 38.6178 535.883 38.0645 534.75 38.0645C533.878 38.0645 532.852 38.3281 531.674 38.8555L530.688 36.8438C531.944 36.1862 533.337 35.8574 534.867 35.8574C536.332 35.8574 537.455 36.1764 538.236 36.8145C539.018 37.4525 539.408 38.4225 539.408 39.7246V47H537.328ZM536.449 41.9414L535.297 41.9805C534.431 42.0065 533.786 42.1628 533.363 42.4492C532.94 42.7357 532.729 43.1719 532.729 43.7578C532.729 44.5977 533.21 45.0176 534.174 45.0176C534.864 45.0176 535.414 44.819 535.824 44.4219C536.241 44.0247 536.449 43.4974 536.449 42.8398V41.9414ZM545.365 36.082V40.3984C545.365 40.8542 545.29 41.9674 545.141 43.7383L550.18 36.082H553.764V47H550.883V42.6445C550.883 41.8698 550.948 40.776 551.078 39.3633L546.059 47H542.484V36.082H545.365ZM552.885 31.3848C552.761 32.6022 552.302 33.4909 551.508 34.0508C550.714 34.6042 549.568 34.8809 548.07 34.8809C546.527 34.8809 545.385 34.6139 544.643 34.0801C543.907 33.5462 543.493 32.6478 543.402 31.3848H546.068C546.114 32.0553 546.28 32.5273 546.566 32.8008C546.859 33.0677 547.38 33.2012 548.129 33.2012C548.786 33.2012 549.275 33.0547 549.594 32.7617C549.919 32.4622 550.118 32.0033 550.189 31.3848H552.885ZM565.869 40.48C566.696 39.64 567.283 38.9733 567.629 38.48C567.989 37.9733 568.169 37.4867 568.169 37.02C568.169 36.5533 568.016 36.1667 567.709 35.86C567.403 35.54 567.009 35.38 566.529 35.38C565.649 35.38 564.816 36.0067 564.029 37.26L561.529 35.78C562.183 34.7667 562.896 34 563.669 33.48C564.456 32.96 565.449 32.7 566.649 32.7C567.863 32.7 568.923 33.0867 569.829 33.86C570.749 34.62 571.209 35.66 571.209 36.98C571.209 37.7 571.023 38.3933 570.649 39.06C570.289 39.7133 569.616 40.5533 568.629 41.58L566.109 44.2H571.629V47H561.769V44.68L565.869 40.48ZM577.559 36.56C577.119 37.4133 576.899 38.54 576.899 39.94C576.899 41.34 577.119 42.4667 577.559 43.32C577.999 44.1733 578.685 44.6 579.619 44.6C580.552 44.6 581.239 44.1733 581.679 43.32C582.119 42.4667 582.339 41.34 582.339 39.94C582.339 38.54 582.119 37.4133 581.679 36.56C581.239 35.7067 580.552 35.28 579.619 35.28C578.685 35.28 577.999 35.7067 577.559 36.56ZM579.619 47.16C577.685 47.16 576.239 46.5067 575.279 45.2C574.319 43.88 573.839 42.1267 573.839 39.94C573.839 37.74 574.319 35.9867 575.279 34.68C576.239 33.36 577.685 32.7 579.619 32.7C581.552 32.7 582.999 33.36 583.959 34.68C584.919 35.9867 585.399 37.74 585.399 39.94C585.399 42.1267 584.919 43.88 583.959 45.2C582.999 46.5067 581.552 47.16 579.619 47.16ZM591.787 40.48C592.614 39.64 593.201 38.9733 593.547 38.48C593.907 37.9733 594.087 37.4867 594.087 37.02C594.087 36.5533 593.934 36.1667 593.627 35.86C593.321 35.54 592.927 35.38 592.447 35.38C591.567 35.38 590.734 36.0067 589.947 37.26L587.447 35.78C588.101 34.7667 588.814 34 589.587 33.48C590.374 32.96 591.367 32.7 592.567 32.7C593.781 32.7 594.841 33.0867 595.747 33.86C596.667 34.62 597.127 35.66 597.127 36.98C597.127 37.7 596.941 38.3933 596.567 39.06C596.207 39.7133 595.534 40.5533 594.547 41.58L592.027 44.2H597.547V47H587.687V44.68L591.787 40.48ZM603.477 36.56C603.037 37.4133 602.817 38.54 602.817 39.94C602.817 41.34 603.037 42.4667 603.477 43.32C603.917 44.1733 604.603 44.6 605.537 44.6C606.47 44.6 607.157 44.1733 607.597 43.32C608.037 42.4667 608.257 41.34 608.257 39.94C608.257 38.54 608.037 37.4133 607.597 36.56C607.157 35.7067 606.47 35.28 605.537 35.28C604.603 35.28 603.917 35.7067 603.477 36.56ZM605.537 47.16C603.603 47.16 602.157 46.5067 601.197 45.2C600.237 43.88 599.757 42.1267 599.757 39.94C599.757 37.74 600.237 35.9867 601.197 34.68C602.157 33.36 603.603 32.7 605.537 32.7C607.47 32.7 608.917 33.36 609.877 34.68C610.837 35.9867 611.317 37.74 611.317 39.94C611.317 42.1267 610.837 43.88 609.877 45.2C608.917 46.5067 607.47 47.16 605.537 47.16Z" fill="#FF9100"/>
<path d="M461.062 13.8125H457.25C456.732 13.8125 456.312 14.2318 456.312 14.75V15.6875H454.438V14.75C454.438 14.2318 454.018 13.8125 453.5 13.8125H447.875C447.357 13.8125 446.938 14.2318 446.938 14.75V15.6875H445.062V14.75C445.062 14.2318 444.643 13.8125 444.125 13.8125H438.5C437.982 13.8125 437.562 14.2318 437.562 14.75V15.6875H435.688V14.75C435.688 14.2318 435.268 13.8125 434.75 13.8125H430.938C430.419 13.8125 430 14.2318 430 14.75V41.0625C430 41.5807 430.419 42 430.938 42H461.062C461.581 42 462 41.5807 462 41.0625V14.75C462 14.2318 461.581 13.8125 461.062 13.8125Z" fill="url(#paint4_linear)"/>
<path d="M438.5 10H434.75C434.232 10 433.812 10.4193 433.812 10.9375V16.625C433.812 17.1432 434.232 17.5625 434.75 17.5625H438.5C439.018 17.5625 439.438 17.1432 439.438 16.625V10.9375C439.438 10.4193 439.018 10 438.5 10ZM444.125 17.5625H447.875C448.393 17.5625 448.812 17.1432 448.812 16.625V10.9375C448.812 10.4193 448.393 10 447.875 10H444.125C443.607 10 443.188 10.4193 443.188 10.9375V16.625C443.188 17.1432 443.607 17.5625 444.125 17.5625ZM457.25 10H453.5C452.982 10 452.562 10.4193 452.562 10.9375V16.625C452.562 17.1432 452.982 17.5625 453.5 17.5625H457.25C457.768 17.5625 458.188 17.1432 458.188 16.625V10.9375C458.188 10.4193 457.768 10 457.25 10ZM441.312 36.3125H445.062V32.5625H441.312V36.3125ZM441.312 30.6875H445.062V26.9375H441.312V30.6875ZM435.688 35.375C435.688 35.8999 436.1 36.3125 436.625 36.3125H439.438V32.5625H435.688V35.375ZM435.688 30.6875H439.438V26.9375H435.688V30.6875ZM435.688 22.25V25.0625H439.438V21.3125H436.625C436.1 21.3125 435.688 21.7249 435.688 22.25ZM452.562 36.3125H455.375C455.9 36.3125 456.312 35.8999 456.312 35.375V32.5625H452.562V36.3125ZM452.562 30.6875H456.312V26.9375H452.562V30.6875ZM455.375 21.3125H452.562V25.0625H456.312V22.25C456.312 21.7249 455.9 21.3125 455.375 21.3125ZM446.938 30.6875H450.688V26.9375H446.938V30.6875ZM446.938 36.3125H450.688V32.5625H446.938V36.3125ZM441.312 25.0625H445.062V21.3125H441.312V25.0625ZM446.938 25.0625H450.688V21.3125H446.938V25.0625Z" fill="url(#paint5_linear)"/>
<path d="M744.666 18H742.443V10.467H740.175C740.103 11.601 739.992 12.579 739.842 13.401C739.692 14.217 739.512 14.91 739.302 15.48C739.098 16.05 738.867 16.509 738.609 16.857C738.357 17.199 738.087 17.466 737.799 17.658C737.511 17.85 737.214 17.976 736.908 18.036C736.602 18.102 736.293 18.135 735.981 18.135C735.651 18.135 735.408 18.105 735.252 18.045C735.102 17.991 735.027 17.913 735.027 17.811V16.425H735.558C735.756 16.425 735.954 16.395 736.152 16.335C736.35 16.275 736.542 16.152 736.728 15.966C736.914 15.78 737.091 15.516 737.259 15.174C737.427 14.826 737.58 14.37 737.718 13.806C737.862 13.236 737.988 12.54 738.096 11.718C738.204 10.896 738.288 9.912 738.348 8.766H744.666V18ZM750.942 8.622C751.626 8.622 752.247 8.733 752.805 8.955C753.369 9.177 753.849 9.492 754.245 9.9C754.647 10.308 754.956 10.806 755.172 11.394C755.388 11.982 755.496 12.639 755.496 13.365C755.496 14.097 755.388 14.757 755.172 15.345C754.956 15.933 754.647 16.434 754.245 16.848C753.849 17.262 753.369 17.58 752.805 17.802C752.247 18.024 751.626 18.135 750.942 18.135C750.252 18.135 749.625 18.024 749.061 17.802C748.497 17.58 748.014 17.262 747.612 16.848C747.216 16.434 746.907 15.933 746.685 15.345C746.469 14.757 746.361 14.097 746.361 13.365C746.361 12.639 746.469 11.982 746.685 11.394C746.907 10.806 747.216 10.308 747.612 9.9C748.014 9.492 748.497 9.177 749.061 8.955C749.625 8.733 750.252 8.622 750.942 8.622ZM750.942 16.425C751.71 16.425 752.277 16.167 752.643 15.651C753.015 15.135 753.201 14.379 753.201 13.383C753.201 12.387 753.015 11.628 752.643 11.106C752.277 10.584 751.71 10.323 750.942 10.323C750.162 10.323 749.583 10.587 749.205 11.115C748.833 11.637 748.647 12.393 748.647 13.383C748.647 14.373 748.833 15.129 749.205 15.651C749.583 16.167 750.162 16.425 750.942 16.425ZM762.709 9.351C762.817 9.177 762.964 9.036 763.15 8.928C763.336 8.82 763.534 8.766 763.744 8.766H765.49L763.339 12.195C763.189 12.435 763.036 12.63 762.88 12.78C762.724 12.924 762.535 13.038 762.313 13.122C762.613 13.212 762.859 13.347 763.051 13.527C763.243 13.701 763.417 13.923 763.573 14.193L765.733 18H764.194C763.804 18 763.501 17.934 763.285 17.802C763.069 17.67 762.886 17.481 762.736 17.235L761.377 14.679C761.257 14.457 761.101 14.292 760.909 14.184C760.723 14.076 760.504 14.022 760.252 14.022H759.415V18H757.192V8.766H759.415V12.573H760.135C760.387 12.573 760.588 12.528 760.738 12.438C760.894 12.342 761.026 12.198 761.134 12.006L762.709 9.351ZM771.843 14.058C771.201 14.088 770.661 14.145 770.223 14.229C769.785 14.307 769.434 14.409 769.17 14.535C768.906 14.661 768.717 14.808 768.603 14.976C768.489 15.144 768.432 15.327 768.432 15.525C768.432 15.915 768.546 16.194 768.774 16.362C769.008 16.53 769.311 16.614 769.683 16.614C770.139 16.614 770.532 16.533 770.862 16.371C771.198 16.203 771.525 15.951 771.843 15.615V14.058ZM766.749 10.053C767.811 9.081 769.089 8.595 770.583 8.595C771.123 8.595 771.606 8.685 772.032 8.865C772.458 9.039 772.818 9.285 773.112 9.603C773.406 9.915 773.628 10.29 773.778 10.728C773.934 11.166 774.012 11.646 774.012 12.168V18H773.004C772.794 18 772.632 17.97 772.518 17.91C772.404 17.844 772.314 17.715 772.248 17.523L772.05 16.857C771.816 17.067 771.588 17.253 771.366 17.415C771.144 17.571 770.913 17.703 770.673 17.811C770.433 17.919 770.175 18 769.899 18.054C769.629 18.114 769.329 18.144 768.999 18.144C768.609 18.144 768.249 18.093 767.919 17.991C767.589 17.883 767.304 17.724 767.064 17.514C766.824 17.304 766.638 17.043 766.506 16.731C766.374 16.419 766.308 16.056 766.308 15.642C766.308 15.408 766.347 15.177 766.425 14.949C766.503 14.715 766.629 14.493 766.803 14.283C766.983 14.073 767.214 13.875 767.496 13.689C767.778 13.503 768.123 13.341 768.531 13.203C768.945 13.065 769.425 12.954 769.971 12.87C770.517 12.78 771.141 12.726 771.843 12.708V12.168C771.843 11.55 771.711 11.094 771.447 10.8C771.183 10.5 770.802 10.35 770.304 10.35C769.944 10.35 769.644 10.392 769.404 10.476C769.17 10.56 768.963 10.656 768.783 10.764C768.603 10.866 768.438 10.959 768.288 11.043C768.144 11.127 767.982 11.169 767.802 11.169C767.646 11.169 767.514 11.13 767.406 11.052C767.298 10.968 767.211 10.872 767.145 10.764L766.749 10.053ZM785.853 16.353V20.43C785.853 20.634 785.793 20.796 785.673 20.916C785.553 21.036 785.4 21.096 785.214 21.096H783.828V18H776.106V8.766H778.329V16.353H781.929V8.766H784.152V16.353H785.853ZM795.548 8.766V18H793.325V12.609C793.325 12.471 793.331 12.321 793.343 12.159C793.361 11.991 793.382 11.823 793.406 11.655C793.286 11.931 793.154 12.174 793.01 12.384C792.998 12.396 792.938 12.48 792.83 12.636C792.722 12.786 792.581 12.981 792.407 13.221C792.239 13.461 792.047 13.734 791.831 14.04C791.615 14.34 791.396 14.646 791.174 14.958C790.652 15.696 790.061 16.53 789.401 17.46C789.317 17.586 789.206 17.709 789.068 17.829C788.936 17.949 788.783 18.009 788.609 18.009H787.25V8.775H789.473V14.166C789.473 14.304 789.464 14.457 789.446 14.625C789.434 14.787 789.416 14.952 789.392 15.12C789.524 14.826 789.656 14.583 789.788 14.391C789.794 14.379 789.851 14.298 789.959 14.148C790.067 13.998 790.205 13.803 790.373 13.563C790.547 13.323 790.742 13.053 790.958 12.753C791.174 12.447 791.393 12.135 791.615 11.817C792.137 11.079 792.731 10.245 793.397 9.315C793.481 9.183 793.592 9.06 793.73 8.946C793.868 8.826 794.024 8.766 794.198 8.766H795.548ZM802.559 12.924V10.215H801.353C801.071 10.215 800.837 10.257 800.651 10.341C800.465 10.419 800.312 10.524 800.192 10.656C800.078 10.782 799.997 10.926 799.949 11.088C799.901 11.25 799.877 11.409 799.877 11.565C799.877 11.991 800.018 12.324 800.3 12.564C800.588 12.804 800.972 12.924 801.452 12.924H802.559ZM804.674 8.766V18H802.559V14.292H802.172C801.992 14.292 801.842 14.31 801.722 14.346C801.608 14.376 801.509 14.421 801.425 14.481C801.347 14.535 801.278 14.604 801.218 14.688C801.164 14.772 801.107 14.865 801.047 14.967L799.571 17.235C799.499 17.361 799.421 17.472 799.337 17.568C799.259 17.664 799.166 17.745 799.058 17.811C798.956 17.871 798.833 17.919 798.689 17.955C798.551 17.985 798.383 18 798.185 18H796.646L798.977 14.742C799.103 14.514 799.25 14.331 799.418 14.193C799.586 14.055 799.784 13.944 800.012 13.86C799.58 13.782 799.211 13.662 798.905 13.5C798.605 13.332 798.362 13.14 798.176 12.924C797.99 12.702 797.855 12.465 797.771 12.213C797.687 11.961 797.645 11.712 797.645 11.466C797.645 11.124 797.711 10.791 797.843 10.467C797.981 10.143 798.197 9.855 798.491 9.603C798.785 9.351 799.163 9.15 799.625 9C800.087 8.844 800.642 8.766 801.29 8.766H804.674Z" fill="#565656"/>
<path d="M744.102 36.082V38.3184H739.541V47H736.562V36.082H744.102ZM752.129 47.1953C750.846 47.1953 749.84 46.7298 749.111 45.7988H748.955C749.059 46.7103 749.111 47.2376 749.111 47.3809V51.8047H746.133V36.082H748.555L748.975 37.498H749.111C749.808 36.4173 750.84 35.877 752.207 35.877C753.496 35.877 754.505 36.375 755.234 37.3711C755.964 38.3672 756.328 39.7507 756.328 41.5215C756.328 42.6868 756.156 43.6992 755.811 44.5586C755.472 45.418 754.987 46.0723 754.355 46.5215C753.724 46.9707 752.982 47.1953 752.129 47.1953ZM751.25 38.2598C750.514 38.2598 749.977 38.4876 749.639 38.9434C749.3 39.3926 749.124 40.138 749.111 41.1797V41.502C749.111 42.6738 749.284 43.5137 749.629 44.0215C749.98 44.5293 750.534 44.7832 751.289 44.7832C752.624 44.7832 753.291 43.6829 753.291 41.4824C753.291 40.4082 753.125 39.6042 752.793 39.0703C752.467 38.5299 751.953 38.2598 751.25 38.2598ZM758.847 46.66C758.513 46.3133 758.347 45.8933 758.347 45.4C758.347 44.9067 758.513 44.4933 758.847 44.16C759.193 43.8133 759.613 43.64 760.107 43.64C760.6 43.64 761.013 43.8133 761.347 44.16C761.693 44.4933 761.867 44.9067 761.867 45.4C761.867 45.8933 761.693 46.3133 761.347 46.66C761.013 46.9933 760.6 47.16 760.107 47.16C759.613 47.16 759.193 46.9933 758.847 46.66ZM776.123 35.0371C774.984 35.0371 774.102 35.4668 773.477 36.3262C772.852 37.179 772.539 38.3704 772.539 39.9004C772.539 43.084 773.734 44.6758 776.123 44.6758C777.126 44.6758 778.34 44.4251 779.766 43.9238V46.4629C778.594 46.9512 777.285 47.1953 775.84 47.1953C773.763 47.1953 772.174 46.5671 771.074 45.3105C769.974 44.0475 769.424 42.2376 769.424 39.8809C769.424 38.3965 769.694 37.0977 770.234 35.9844C770.775 34.8646 771.549 34.0085 772.559 33.416C773.574 32.8171 774.762 32.5176 776.123 32.5176C777.51 32.5176 778.903 32.8529 780.303 33.5234L779.326 35.9844C778.792 35.7305 778.255 35.5091 777.715 35.3203C777.174 35.1315 776.644 35.0371 776.123 35.0371ZM784.951 41.5215C784.951 42.6022 785.127 43.4193 785.479 43.9727C785.837 44.526 786.416 44.8027 787.217 44.8027C788.011 44.8027 788.581 44.5293 788.926 43.9824C789.277 43.429 789.453 42.6087 789.453 41.5215C789.453 40.4408 789.277 39.6302 788.926 39.0898C788.574 38.5495 787.998 38.2793 787.197 38.2793C786.403 38.2793 785.83 38.5495 785.479 39.0898C785.127 39.6237 784.951 40.4342 784.951 41.5215ZM792.5 41.5215C792.5 43.2988 792.031 44.6888 791.094 45.6914C790.156 46.694 788.851 47.1953 787.178 47.1953C786.13 47.1953 785.205 46.9674 784.404 46.5117C783.604 46.0495 782.988 45.3887 782.559 44.5293C782.129 43.6699 781.914 42.6673 781.914 41.5215C781.914 39.7376 782.38 38.3509 783.311 37.3613C784.242 36.3717 785.55 35.877 787.236 35.877C788.285 35.877 789.209 36.1048 790.01 36.5605C790.811 37.0163 791.426 37.6706 791.855 38.5234C792.285 39.3763 792.5 40.3757 792.5 41.5215ZM802.939 36.0234C804.762 36.1732 806.191 36.7363 807.227 37.7129C808.262 38.6895 808.779 39.9655 808.779 41.541C808.779 43.1491 808.268 44.4382 807.246 45.4082C806.224 46.3717 804.788 46.9284 802.939 47.0781V51.8047H800.176V47.0781C798.333 46.9089 796.891 46.3327 795.85 45.3496C794.814 44.36 794.297 43.0905 794.297 41.541C794.297 39.8939 794.798 38.5951 795.801 37.6445C796.803 36.6875 798.262 36.1471 800.176 36.0234V31.8047H802.939V36.0234ZM797.363 41.541C797.363 42.459 797.614 43.2077 798.115 43.7871C798.617 44.36 799.303 44.7051 800.176 44.8223V38.2598C799.336 38.3704 798.656 38.7253 798.135 39.3242C797.62 39.9232 797.363 40.6621 797.363 41.541ZM805.723 41.541C805.723 40.6816 805.479 39.959 804.99 39.373C804.502 38.7806 803.818 38.4225 802.939 38.2988V44.8223C803.805 44.7051 804.486 44.3568 804.98 43.7773C805.475 43.1979 805.723 42.4525 805.723 41.541ZM814.131 36.082V40.3984C814.131 40.8542 814.056 41.9674 813.906 43.7383L818.945 36.082H822.529V47H819.648V42.6445C819.648 41.8698 819.714 40.776 819.844 39.3633L814.824 47H811.25V36.082H814.131ZM827.324 47H824.102L827.041 42.6836C826.338 42.3906 825.804 41.9674 825.439 41.4141C825.081 40.8607 824.902 40.2096 824.902 39.4609C824.902 38.4062 825.296 37.5794 826.084 36.9805C826.878 36.3815 827.959 36.082 829.326 36.082H834.404V47H831.426V42.9375H829.785L827.324 47ZM827.822 39.4805C827.822 39.9362 828.001 40.2943 828.359 40.5547C828.717 40.8086 829.186 40.9355 829.766 40.9355H831.426V38.1816H829.385C828.896 38.1816 828.512 38.3021 828.232 38.543C827.959 38.7773 827.822 39.0898 827.822 39.4805Z" fill="#FF9100"/>
<g clip-path="url(#clip0)">
<path d="M695 42C694.693 42 694.405 41.8494 694.23 41.5968C691.965 38.3318 690.006 35.8288 688.433 33.8176C684.809 29.1865 682.812 26.6355 682.812 22.1875C682.812 15.4673 688.28 10 695 10C701.72 10 707.188 15.4673 707.188 22.1875C707.188 26.6309 705.178 29.2013 701.529 33.8676C699.962 35.8716 698.012 38.3655 695.77 41.5968C695.595 41.8494 695.307 42 695 42Z" fill="url(#paint6_linear)"/>
<path d="M695 28.75C691.381 28.75 688.438 25.8061 688.438 22.1875C688.438 18.5689 691.381 15.625 695 15.625C698.619 15.625 701.562 18.5689 701.562 22.1875C701.562 25.8061 698.619 28.75 695 28.75Z" fill="url(#paint7_linear)"/>
</g>
<defs>
<linearGradient id="paint0_linear" x1="16" y1="34.4375" x2="16" y2="17.5625" gradientUnits="userSpaceOnUse">
<stop stop-color="#00B59C"/>
<stop offset="1" stop-color="#9CFFAC"/>
</linearGradient>
<linearGradient id="paint1_linear" x1="16" y1="34.4375" x2="16" y2="17.5625" gradientUnits="userSpaceOnUse">
<stop stop-color="#9BFF9D"/>
<stop offset="0.9973" stop-color="#E2FFEA"/>
<stop offset="1" stop-color="#2CAE50"/>
</linearGradient>
<linearGradient id="paint2_linear" x1="215" y1="30.6875" x2="215" y2="10" gradientUnits="userSpaceOnUse">
<stop stop-color="#ADDCFF"/>
<stop offset="1" stop-color="#CBE9FF"/>
</linearGradient>
<linearGradient id="paint3_linear" x1="215" y1="42" x2="215" y2="23.125" gradientUnits="userSpaceOnUse">
<stop stop-color="#5558FF"/>
<stop offset="1" stop-color="#00C0FF"/>
</linearGradient>
<linearGradient id="paint4_linear" x1="446" y1="42" x2="446" y2="13.8125" gradientUnits="userSpaceOnUse">
<stop stop-color="#FD5900"/>
<stop offset="1" stop-color="#FFDE00"/>
</linearGradient>
<linearGradient id="paint5_linear" x1="446" y1="36.3125" x2="446" y2="10" gradientUnits="userSpaceOnUse">
<stop stop-color="#FFE59A"/>
<stop offset="1" stop-color="#FFFFD5"/>
</linearGradient>
<linearGradient id="paint6_linear" x1="695" y1="42" x2="695" y2="10" gradientUnits="userSpaceOnUse">
<stop stop-color="#FD3A84"/>
<stop offset="1" stop-color="#FFA68D"/>
</linearGradient>
<linearGradient id="paint7_linear" x1="695" y1="28.75" x2="695" y2="15.625" gradientUnits="userSpaceOnUse">
<stop stop-color="#FFC2CC"/>
<stop offset="1" stop-color="#FFF2F4"/>
</linearGradient>
<clipPath id="clip0">
<rect width="32" height="32" fill="white" transform="translate(679 10)"/>
</clipPath>
</defs>
</svg>
